<svg width="40" height="41" viewBox="0 0 40 41" fill="none" xmlns="http://www.w3.org/2000/svg">
<rect y="0.5" width="40" height="40" rx="12" fill="#F5F5F5"/>
<path d="M12 12.5C12 11.3954 12.8954 10.5 14 10.5H17.4211C19.0779 10.5 20.4211 11.8431 20.4211 13.5V16C20.4211 17.3807 21.5403 18.5 22.9211 18.5H25C26.6569 18.5 28 19.8431 28 21.5V28.5C28 29.6046 27.1046 30.5 26 30.5H14C12.8954 30.5 12 29.6046 12 28.5V12.5Z" stroke="#616161" stroke-width="2"/>
<path d="M12 12.5C12 11.3954 12.8954 10.5 14 10.5H17.2339C19.5937 10.5 21.8332 11.5419 23.3532 13.3469L26.1193 16.6316C27.3339 18.074 28 19.899 28 21.7847V28.5C28 29.6046 27.1046 30.5 26 30.5H14C12.8954 30.5 12 29.6046 12 28.5V12.5Z" stroke="#616161" stroke-width="2"/>
</svg>
