<svg width="28" height="28" viewBox="0 0 28 28" fill="none" xmlns="http://www.w3.org/2000/svg">
<rect width="28" height="28" rx="4" fill="#425862"/>
<path d="M10.6666 17.342L13.6086 17.332L20.03 10.972C20.282 10.72 20.4206 10.3853 20.4206 10.0293C20.4206 9.67335 20.282 9.33868 20.03 9.08668L18.9726 8.02935C18.4686 7.52535 17.5893 7.52802 17.0893 8.02735L10.6666 14.3887V17.342ZM18.03 8.97202L19.0893 10.0273L18.0246 11.082L16.9673 10.0253L18.03 8.97202ZM12 14.9447L16.02 10.9627L17.0773 12.02L13.058 16.0007L12 16.004V14.9447Z" fill="white"/>
<path d="M9.33333 20H18.6667C19.402 20 20 19.402 20 18.6667V12.888L18.6667 14.2213V18.6667H11.4387C11.4213 18.6667 11.4033 18.6733 11.386 18.6733C11.364 18.6733 11.342 18.6673 11.3193 18.6667H9.33333V9.33333H13.898L15.2313 8H9.33333C8.598 8 8 8.598 8 9.33333V18.6667C8 19.402 8.598 20 9.33333 20Z" fill="white"/>
</svg>
