<svg width="28" height="28" viewBox="0 0 28 28" fill="none" xmlns="http://www.w3.org/2000/svg">
<rect width="28" height="28" rx="4" fill="#1ABFD1"/>
<path d="M14 9.41667C17.1583 9.41667 19.975 11.1917 21.35 14C19.975 16.8083 17.1583 18.5833 14 18.5833C10.8416 18.5833 8.02498 16.8083 6.64998 14C8.02498 11.1917 10.8416 9.41667 14 9.41667ZM14 7.75C9.83331 7.75 6.27498 10.3417 4.83331 14C6.27498 17.6583 9.83331 20.25 14 20.25C18.1666 20.25 21.725 17.6583 23.1666 14C21.725 10.3417 18.1666 7.75 14 7.75ZM14 11.9167C15.15 11.9167 16.0833 12.85 16.0833 14C16.0833 15.15 15.15 16.0833 14 16.0833C12.85 16.0833 11.9166 15.15 11.9166 14C11.9166 12.85 12.85 11.9167 14 11.9167ZM14 10.25C11.9333 10.25 10.25 11.9333 10.25 14C10.25 16.0667 11.9333 17.75 14 17.75C16.0666 17.75 17.75 16.0667 17.75 14C17.75 11.9333 16.0666 10.25 14 10.25Z" fill="white"/>
</svg>
