
<svg width="24" height="24" viewBox="0 0 24 24" fill="none" xmlns="http://www.w3.org/2000/svg">
<g clip-path="url(#clip0_666_13910)">
<path d="M18.375 0H5.625C2.5184 0 0 2.5184 0 5.625V18.375C0 21.4816 2.5184 24 5.625 24H18.375C21.4816 24 24 21.4816 24 18.375V5.625C24 2.5184 21.4816 0 18.375 0Z" fill="url(#paint0_radial_666_13910)"/>
<path d="M18.375 0H5.625C2.5184 0 0 2.5184 0 5.625V18.375C0 21.4816 2.5184 24 5.625 24H18.375C21.4816 24 24 21.4816 24 18.375V5.625C24 2.5184 21.4816 0 18.375 0Z" fill="url(#paint1_radial_666_13910)"/>
<path d="M12.0008 5.14258C10.1386 5.14258 9.9048 5.15074 9.17342 5.18399C8.44341 5.21746 7.9451 5.333 7.50912 5.50257C7.05806 5.6777 6.6755 5.91201 6.29438 6.29326C5.91292 6.67445 5.67861 7.057 5.50293 7.50786C5.33287 7.94397 5.21719 8.44248 5.18435 9.17214C5.15164 9.90358 5.14307 10.1374 5.14307 11.9997C5.14307 13.862 5.15129 14.095 5.18448 14.8264C5.21808 15.5564 5.33363 16.0547 5.50307 16.4907C5.67834 16.9418 5.91264 17.3243 6.2939 17.7054C6.67495 18.0869 7.05751 18.3217 7.50823 18.4969C7.94455 18.6664 8.44293 18.782 9.1728 18.8154C9.90426 18.8487 10.1378 18.8569 12 18.8569C13.8625 18.8569 14.0955 18.8487 14.8269 18.8154C15.5569 18.782 16.0557 18.6664 16.4921 18.4969C16.9429 18.3217 17.3249 18.0869 17.7059 17.7054C18.0874 17.3243 18.3216 16.9418 18.4974 16.4909C18.6659 16.0547 18.7816 15.5563 18.8159 14.8266C18.8488 14.0952 18.8574 13.862 18.8574 11.9997C18.8574 10.1374 18.8488 9.90372 18.8159 9.17228C18.7816 8.44227 18.6659 7.94404 18.4974 7.50806C18.3216 7.057 18.0874 6.67445 17.7059 6.29326C17.3245 5.91187 16.943 5.67757 16.4916 5.50264C16.0545 5.333 15.5559 5.21739 14.8259 5.18399C14.0944 5.15074 13.8616 5.14258 11.9987 5.14258H12.0008ZM11.3857 6.37829C11.5683 6.37802 11.772 6.37829 12.0008 6.37829C13.8318 6.37829 14.0487 6.38487 14.7717 6.41772C15.4403 6.4483 15.8032 6.56 16.0449 6.65388C16.3649 6.77813 16.5931 6.92672 16.8329 7.16679C17.0729 7.40678 17.2214 7.63533 17.346 7.95535C17.4399 8.19672 17.5518 8.5596 17.5822 9.22816C17.615 9.95103 17.6222 10.1681 17.6222 11.9981C17.6222 13.8282 17.615 14.0453 17.5822 14.7681C17.5516 15.4367 17.4399 15.7996 17.346 16.041C17.2218 16.361 17.0729 16.5889 16.8329 16.8287C16.5929 17.0687 16.3651 17.2173 16.0449 17.3416C15.8035 17.4359 15.4403 17.5473 14.7717 17.5779C14.0489 17.6107 13.8318 17.6179 12.0008 17.6179C10.1698 17.6179 9.9528 17.6107 9.22999 17.5779C8.56142 17.547 8.19854 17.4353 7.95662 17.3415C7.63667 17.2171 7.40805 17.0686 7.16805 16.8286C6.92805 16.5886 6.77952 16.3606 6.65493 16.0405C6.56106 15.799 6.44922 15.4361 6.41877 14.7676C6.38592 14.0447 6.37934 13.8276 6.37934 11.9964C6.37934 10.1653 6.38592 9.94932 6.41877 9.22645C6.44935 8.55788 6.56106 8.195 6.65493 7.95329C6.77925 7.63327 6.92805 7.40473 7.16812 7.16473C7.40812 6.92473 7.63667 6.77614 7.95669 6.65161C8.1984 6.55733 8.56142 6.4459 9.22999 6.41518C9.86256 6.38659 10.1077 6.37802 11.3857 6.37658V6.37829ZM15.6612 7.51684C15.2069 7.51684 14.8383 7.88507 14.8383 8.33942C14.8383 8.7937 15.2069 9.16226 15.6612 9.16226C16.1155 9.16226 16.484 8.7937 16.484 8.33942C16.484 7.88513 16.1155 7.51657 15.6612 7.51657V7.51684ZM12.0008 8.47827C10.0561 8.47827 8.47941 10.055 8.47941 11.9997C8.47941 13.9445 10.0561 15.5204 12.0008 15.5204C13.9456 15.5204 15.5218 13.9445 15.5218 11.9997C15.5218 10.0551 13.9454 8.47827 12.0007 8.47827H12.0008ZM12.0008 9.71398C13.2632 9.71398 14.2866 10.7373 14.2866 11.9997C14.2866 13.262 13.2632 14.2855 12.0008 14.2855C10.7384 14.2855 9.71514 13.262 9.71514 11.9997C9.71514 10.7373 10.7384 9.71398 12.0008 9.71398Z" fill="white"/>
</g>
<defs>
<radialGradient id="paint0_radial_666_13910" cx="0" cy="0" r="1" gradientUnits="userSpaceOnUse" gradientTransform="translate(6.375 25.8485) rotate(-90) scale(23.7858 22.1227)">
<stop stop-color="#FFDD55"/>
<stop offset="0.1" stop-color="#FFDD55"/>
<stop offset="0.5" stop-color="#FF543E"/>
<stop offset="1" stop-color="#C837AB"/>
</radialGradient>
<radialGradient id="paint1_radial_666_13910" cx="0" cy="0" r="1" gradientUnits="userSpaceOnUse" gradientTransform="translate(-4.02009 1.72884) rotate(78.681) scale(10.6324 43.827)">
<stop stop-color="#3771C8"/>
<stop offset="0.128" stop-color="#3771C8"/>
<stop offset="1" stop-color="#6600FF" stop-opacity="0"/>
</radialGradient>
<clipPath id="clip0_666_13910">
<rect width="24" height="24" rx="12" fill="white"/>
</clipPath>
</defs>
</svg>
