<svg width="24" height="24" viewBox="0 0 24 24" fill="none" xmlns="http://www.w3.org/2000/svg">
<rect width="24" height="24" rx="8" fill="#0A66C2"/>
<rect x="5.14307" y="5.14258" width="13.7143" height="13.7143" rx="4" fill="white"/>
<path d="M16.8283 16.828H14.7963V13.6457C14.7963 12.8868 14.7827 11.91 13.7394 11.91C12.681 11.91 12.5191 12.7368 12.5191 13.5904V16.8278H10.4871V10.2837H12.4378V11.178H12.4652C12.6604 10.8442 12.9425 10.5696 13.2814 10.3835C13.6204 10.1973 14.0034 10.1066 14.3899 10.1209C16.4494 10.1209 16.8291 11.4756 16.8291 13.238L16.8283 16.828ZM8.19428 9.38922C7.54301 9.38933 7.01496 8.86143 7.01485 8.21016C7.01474 7.5589 7.54258 7.03084 8.19385 7.03074C8.84512 7.03058 9.37317 7.55847 9.37328 8.20974C9.37334 8.52249 9.24915 8.82245 9.02805 9.04365C8.80695 9.26484 8.50703 9.38915 8.19428 9.38922ZM9.21032 16.828H7.17616V10.2837H9.21026V16.828L9.21032 16.828ZM17.8413 5.14358H6.15508C5.60276 5.13736 5.14982 5.57981 5.14307 6.13213V17.8671C5.1496 18.4197 5.60249 18.8626 6.15503 18.8568H17.8413C18.395 18.8636 18.8497 18.4208 18.8573 17.8671V6.13122C18.8495 5.57783 18.3948 5.13543 17.8413 5.14267" fill="#0A66C2"/>
</svg>
