<svg width="162" height="44" viewBox="0 0 162 44" fill="none" xmlns="http://www.w3.org/2000/svg">
<g clip-path="url(#clip0_337_41125)">
<path fill-rule="evenodd" clip-rule="evenodd" d="M26.8745 6.89358C24.6842 6.96419 23.9103 7.65912 23.5891 8.0679C23.5636 8.09763 23.5453 8.12736 23.5307 8.14594C23.3664 8.3875 23.0598 8.9598 22.7386 10.6209C22.5131 11.7887 22.3801 12.9731 22.3407 14.1625L21.804 17.6595C21.4171 20.2013 20.4643 24.0625 17.5841 24.7203C13.649 25.6159 9.18814 19.6253 7.83383 17.7524C7.30452 17.0091 6.59633 15.9537 3.67234 9.81081C2.12455 6.53311 0.872454 3.78311 0 1.82838L20.5446 15.4483L20.7819 13.9061C20.9608 12.453 21.147 11.2044 21.293 10.1899C21.6215 8.06047 21.7456 7.63682 22.0632 7.14257C22.7783 6.13378 23.8247 5.4192 25.0128 5.12838C25.9436 4.89797 26.1408 5.15068 27.36 4.96115C28.301 4.81094 29.2142 4.51649 30.0686 4.08784C31.7588 3.26655 35.0077 1.88041 39.4502 0C36.491 1.90766 33.5183 3.89955 30.5322 5.97568L29.4371 6.74865C29.4115 6.80811 29.021 6.97162 28.9443 7.14628C28.8844 7.36255 28.8368 7.58217 28.8019 7.80405C28.6705 8.72567 28.5683 9.72905 28.5135 10.803C28.4402 12.316 28.4732 13.8324 28.6121 15.3405L50.011 1.36013C47.0504 6.90473 44.4878 11.3939 42.5568 14.7162C41.3667 16.7527 40.6403 17.953 39.3772 19.3057C35.9349 22.9736 31.6493 24.4155 28.7143 25.051C28.7143 25.3186 28.7143 25.6865 28.7143 26.125C28.6486 29.8412 27.2541 32.5466 24.885 35.2297C23.9943 36.2405 23.0269 37.177 22.1362 38.2027C21.5376 38.8753 20.9608 39.9568 20.3475 40.9267C19.9168 41.6105 19.57 42.1828 19.3327 42.5767L18.4785 44.0149V32.2753C18.4237 30.635 18.8072 29.0102 19.5882 27.5743C21.1981 24.8318 24.1914 23.8098 27.1373 23.5311C27.1373 22.7878 27.1373 22.078 27.1373 21.3534C27.1373 21.0338 27.1373 20.5693 27.1373 19.4953C27.1154 18.0385 27.0935 16.9348 27.0935 16.8084C27.0424 15.2365 26.9731 11.6392 26.8745 6.89358ZM27.1227 25.1736C22.9977 25.601 20.0372 27.5297 20.0409 32.2605V38.1841C20.322 37.8125 20.625 37.4409 20.9352 37.0693C21.8296 36.0622 22.7933 35.1257 23.6877 34.0963C25.794 31.7105 27.0424 29.3544 27.1045 26.0581C27.1045 25.7497 27.1045 25.4412 27.1045 25.1365L27.1227 25.1736ZM28.7289 23.4122C31.4388 23.1925 34.0209 22.1475 36.1393 20.4132C37.9645 18.8932 39.4247 16.9162 40.6476 14.8389C42.053 12.4753 43.2321 9.94088 44.4148 7.45101C44.5243 7.22061 44.6485 6.97905 44.7799 6.73007L28.6705 17.2284C28.6924 18.5997 28.718 19.9709 28.7289 21.3422C28.7326 22.0297 28.7326 22.7209 28.7289 23.4122ZM4.01548 6.43649C4.41337 7.30236 4.74556 8.22399 5.14711 9.18277C6.18655 11.8658 7.5214 14.4203 9.12609 16.7973C10.3587 18.6224 11.8328 20.2656 13.5066 21.6804C14.463 22.4236 15.9743 23.4196 17.252 23.126C19.2743 22.6689 19.9898 19.1051 20.249 17.4068L20.2782 17.2098L4.01548 6.43649Z" fill="white"/>
</g>
<path d="M70.432 32L65.784 24.02H62.704V32H60.156V12.484H66.456C67.9307 12.484 69.172 12.736 70.18 13.24C71.2067 13.744 71.972 14.4253 72.476 15.284C72.98 16.1427 73.232 17.1227 73.232 18.224C73.232 19.568 72.84 20.7533 72.056 21.78C71.2907 22.8067 70.1333 23.488 68.584 23.824L73.484 32H70.432ZM62.704 21.976H66.456C67.8373 21.976 68.8733 21.64 69.564 20.968C70.2547 20.2773 70.6 19.3627 70.6 18.224C70.6 17.0667 70.2547 16.1707 69.564 15.536C68.892 14.9013 67.856 14.584 66.456 14.584H62.704V21.976ZM93.6912 23.74C93.6912 24.2253 93.6632 24.7387 93.6072 25.28H81.3432C81.4365 26.792 81.9498 27.9773 82.8832 28.836C83.8352 29.676 84.9832 30.096 86.3272 30.096C87.4285 30.096 88.3432 29.844 89.0712 29.34C89.8178 28.8173 90.3405 28.1267 90.6392 27.268H93.3832C92.9725 28.7427 92.1512 29.9467 90.9192 30.88C89.6872 31.7947 88.1565 32.252 86.3272 32.252C84.8712 32.252 83.5645 31.9253 82.4072 31.272C81.2685 30.6187 80.3725 29.6947 79.7192 28.5C79.0658 27.2867 78.7392 25.8867 78.7392 24.3C78.7392 22.7133 79.0565 21.3227 79.6912 20.128C80.3258 18.9333 81.2125 18.0187 82.3512 17.384C83.5085 16.7307 84.8338 16.404 86.3272 16.404C87.7832 16.404 89.0712 16.7213 90.1912 17.356C91.3112 17.9907 92.1698 18.868 92.7672 19.988C93.3832 21.0893 93.6912 22.34 93.6912 23.74ZM91.0592 23.208C91.0592 22.2373 90.8445 21.4067 90.4152 20.716C89.9858 20.0067 89.3978 19.4747 88.6512 19.12C87.9232 18.7467 87.1112 18.56 86.2152 18.56C84.9272 18.56 83.8258 18.9707 82.9112 19.792C82.0152 20.6133 81.5018 21.752 81.3712 23.208H91.0592ZM98.6024 24.272C98.6024 22.704 98.9198 21.332 99.5544 20.156C100.189 18.9613 101.057 18.0373 102.158 17.384C103.278 16.7307 104.52 16.404 105.882 16.404C107.226 16.404 108.393 16.6933 109.382 17.272C110.372 17.8507 111.109 18.5787 111.594 19.456V16.656H114.17V32H111.594V29.144C111.09 30.04 110.334 30.7867 109.326 31.384C108.337 31.9627 107.18 32.252 105.854 32.252C104.492 32.252 103.26 31.916 102.158 31.244C101.057 30.572 100.189 29.6293 99.5544 28.416C98.9198 27.2027 98.6024 25.8213 98.6024 24.272ZM111.594 24.3C111.594 23.1427 111.361 22.1347 110.894 21.276C110.428 20.4173 109.793 19.764 108.99 19.316C108.206 18.8493 107.338 18.616 106.386 18.616C105.434 18.616 104.566 18.84 103.782 19.288C102.998 19.736 102.373 20.3893 101.906 21.248C101.44 22.1067 101.206 23.1147 101.206 24.272C101.206 25.448 101.44 26.4747 101.906 27.352C102.373 28.2107 102.998 28.8733 103.782 29.34C104.566 29.788 105.434 30.012 106.386 30.012C107.338 30.012 108.206 29.788 108.99 29.34C109.793 28.8733 110.428 28.2107 110.894 27.352C111.361 26.4747 111.594 25.4573 111.594 24.3ZM123.524 11.28V32H120.976V11.28H123.524ZM131.683 14.164C131.198 14.164 130.787 13.996 130.451 13.66C130.115 13.324 129.947 12.9133 129.947 12.428C129.947 11.9427 130.115 11.532 130.451 11.196C130.787 10.86 131.198 10.692 131.683 10.692C132.15 10.692 132.542 10.86 132.859 11.196C133.195 11.532 133.363 11.9427 133.363 12.428C133.363 12.9133 133.195 13.324 132.859 13.66C132.542 13.996 132.15 14.164 131.683 14.164ZM132.915 16.656V32H130.367V16.656H132.915ZM150.79 12.484V14.556H142.306V21.136H149.194V23.208H142.306V32H139.758V12.484H150.79ZM157.683 14.164C157.198 14.164 156.787 13.996 156.451 13.66C156.115 13.324 155.947 12.9133 155.947 12.428C155.947 11.9427 156.115 11.532 156.451 11.196C156.787 10.86 157.198 10.692 157.683 10.692C158.15 10.692 158.542 10.86 158.859 11.196C159.195 11.532 159.363 11.9427 159.363 12.428C159.363 12.9133 159.195 13.324 158.859 13.66C158.542 13.996 158.15 14.164 157.683 14.164ZM158.915 16.656V32H156.367V16.656H158.915Z" fill="white"/>
<defs>
<clipPath id="clip0_337_41125">
<rect width="50" height="44" fill="white"/>
</clipPath>
</defs>
</svg>
