<svg width="18" height="22" viewBox="0 0 18 22" fill="none" xmlns="http://www.w3.org/2000/svg">
<path d="M9 8.22461C11.21 8.22461 13 6.43461 13 4.22461C13 2.01461 11.21 0.224609 9 0.224609C6.79 0.224609 5 2.01461 5 4.22461C5 6.43461 6.79 8.22461 9 8.22461ZM9 2.22461C10.1 2.22461 11 3.12461 11 4.22461C11 5.32461 10.1 6.22461 9 6.22461C7.9 6.22461 7 5.32461 7 4.22461C7 3.12461 7.9 2.22461 9 2.22461ZM9 10.7746C6.64 8.57461 3.48 7.22461 0 7.22461V18.2246C3.48 18.2246 6.64 19.5746 9 21.7746C11.36 19.5846 14.52 18.2246 18 18.2246V7.22461C14.52 7.22461 11.36 8.57461 9 10.7746ZM16 16.3546C13.47 16.6946 11.07 17.6546 9 19.1746C6.94 17.6546 4.53 16.6846 2 16.3446V9.39461C4.1 9.77461 6.05 10.7446 7.64 12.2246L9 13.5046L10.36 12.2346C11.95 10.7546 13.9 9.78461 16 9.40461V16.3546Z" fill="currentColor"/>
</svg>
