<svg width="18" height="20" viewBox="0 0 18 20" fill="none" xmlns="http://www.w3.org/2000/svg">
<path d="M13.0841 7.2013C14.3723 8.12164 15.9503 8.66316 17.6547 8.66316V5.38523C17.3321 5.3853 17.0104 5.35164 16.6948 5.28482V7.86502C14.9906 7.86502 13.4127 7.32358 12.1243 6.4033V13.0927C12.1243 16.4391 9.41012 19.1516 6.06226 19.1516C4.81309 19.1516 3.65198 18.7742 2.6875 18.1268C3.78833 19.2519 5.3235 19.9497 7.02185 19.9497C10.37 19.9497 13.0843 17.2372 13.0843 13.8906V7.2013H13.0841ZM14.2683 3.89427C13.6099 3.17544 13.1776 2.24647 13.0841 1.21944V0.797852H12.1745C12.4035 2.10316 13.1845 3.21833 14.2683 3.89427ZM4.80502 15.559C4.43722 15.077 4.2384 14.4873 4.23929 13.881C4.23929 12.3505 5.48074 11.1096 7.0124 11.1096C7.29779 11.1094 7.58151 11.1532 7.85357 11.2394V7.8882C7.53564 7.84468 7.21481 7.82613 6.89412 7.83296V10.4414C6.62193 10.3551 6.33807 10.3113 6.05253 10.3116C4.52095 10.3116 3.27957 11.5524 3.27957 13.0831C3.27957 14.1654 3.90005 15.1025 4.80502 15.559Z" fill="#FF004F"/>
<path d="M12.1243 6.40323C13.4127 7.32351 14.9905 7.86495 16.6947 7.86495V5.28475C15.7434 5.0822 14.9013 4.58537 14.2681 3.89427C13.1843 3.21827 12.4034 2.10309 12.1745 0.797852H9.7853V13.8905C9.77985 15.4168 8.54054 16.6527 7.0122 16.6527C6.11165 16.6527 5.31151 16.2236 4.80482 15.5589C3.89999 15.1025 3.27944 14.1654 3.27944 13.0832C3.27944 11.5526 4.52082 10.3116 6.05241 10.3116C6.34585 10.3116 6.62868 10.3573 6.89399 10.4414V7.83302C3.60489 7.90096 0.959717 10.587 0.959717 13.8905C0.959717 15.5396 1.61841 17.0346 2.68751 18.127C3.65199 18.7742 4.81303 19.1518 6.06227 19.1518C9.4102 19.1518 12.1243 16.439 12.1243 13.0927V6.4033L12.1243 6.40323Z" fill="black"/>
<path d="M16.6948 5.28483V4.58731C15.837 4.58861 14.996 4.34849 14.2682 3.89441C14.9125 4.59939 15.7609 5.08554 16.6948 5.28497V5.28483ZM12.1745 0.797931C12.1527 0.673214 12.1359 0.547663 12.1243 0.421586V0H8.82538V13.0928C8.82014 14.619 7.58083 15.8548 6.05241 15.8548C5.61912 15.8555 5.19175 15.7542 4.80483 15.5592C5.31152 16.2238 6.11166 16.6528 7.01221 16.6528C8.54048 16.6528 9.77993 15.417 9.78531 13.8907V0.798H12.1745V0.797931ZM6.89421 7.8331V7.09041C6.61855 7.05273 6.34064 7.03389 6.06241 7.034C2.71414 7.034 0 9.74669 0 13.0928C0 15.1906 1.06669 17.0394 2.68766 18.127C1.61855 17.0347 0.959862 15.5397 0.959862 13.8906C0.959862 10.5872 3.60497 7.90103 6.89421 7.8331Z" fill="#00F2EA"/>
</svg>
