<svg width="32" height="32" viewBox="0 0 32 32" fill="none" xmlns="http://www.w3.org/2000/svg">
<path d="M27.3306 31.9879H4.66918C1.20268 31.9879 -1.05194 28.3398 0.498308 25.2393L11.829 2.57775C13.5475 -0.85925 18.4522 -0.85925 20.1707 2.57775L31.5014 25.2393C33.0518 28.3398 30.7972 31.9879 27.3306 31.9879Z" fill="#B43236"/>
<path d="M27.3306 31.9879H4.66918C1.20268 31.9879 -1.05194 28.3398 0.498308 25.2393L11.829 2.57775C13.5475 -0.85925 18.4522 -0.85925 20.1707 2.57775L31.5014 25.2393C33.0518 28.3398 30.7972 31.9879 27.3306 31.9879Z" fill="#B43236"/>
<path d="M30.3791 25.8004L19.0484 3.13895C18.4585 1.9592 17.3189 1.25488 15.9999 1.25488C14.681 1.25488 13.5414 1.9592 12.9515 3.13895L1.62075 25.8004C1.08863 26.8647 1.14438 28.1044 1.76994 29.1165C2.3955 30.1287 3.47938 30.733 4.66919 30.733H27.3307C28.5205 30.733 29.6044 30.1287 30.2299 29.1165C30.8554 28.1044 30.9113 26.8648 30.3791 25.8004ZM29.1625 28.4568C28.7673 29.0963 28.0825 29.4781 27.3308 29.4781H4.66919C3.91744 29.4781 3.23263 29.0963 2.83744 28.4568C2.44219 27.8173 2.40694 27.0341 2.74319 26.3616L14.0739 3.7002C14.4521 2.9437 15.1541 2.50982 15.9999 2.50982C16.8457 2.50982 17.5477 2.9437 17.9259 3.7002L29.2566 26.3617C29.5929 27.0341 29.5577 27.8173 29.1625 28.4568Z" fill="#B43236"/>
<path d="M27.3304 31.9877H25.546L15.2314 21.6731C14.9264 21.5238 14.7733 21.2659 14.7733 20.8976C14.7733 19.5059 14.7162 18.5133 14.602 15.3635C14.4878 12.2143 14.4307 11.5674 14.4307 10.1757C14.4307 9.73148 14.5819 9.38892 14.8843 9.14736C15.1861 8.90517 15.5776 8.78467 16.0582 8.78467C16.5389 8.78467 16.8921 8.91017 17.1167 9.16179C17.16 9.20948 26.563 18.6093 29.8087 21.8538L31.5016 25.2395C33.0521 28.3397 30.7971 31.9877 27.3304 31.9877Z" fill="#B43236"/>
<path d="M24.8109 31.9875H20.144L14.7937 26.6373C14.438 26.3235 14.2598 25.9578 14.2598 25.5392C14.2598 25.1032 14.438 24.7323 14.7937 24.4274C15.1495 24.1225 15.5818 23.97 16.09 23.97C16.5374 23.97 16.9245 24.1225 17.2508 24.4274L24.8109 31.9875Z" fill="#B43236"/>
<path d="M14.2598 25.5391C14.2598 25.103 14.4376 24.7326 14.7933 24.4277C15.1491 24.1227 15.5815 23.9699 16.0896 23.9699C16.5372 23.9699 16.9241 24.1227 17.2503 24.4277C17.5766 24.7326 17.7403 25.103 17.7403 25.5391C17.7403 25.9576 17.5768 26.3236 17.2503 26.6374C16.9241 26.9512 16.5371 27.1081 16.0896 27.1081C15.5814 27.1081 15.1491 26.9512 14.7933 26.6374C14.4376 26.3236 14.2598 25.9576 14.2598 25.5391ZM14.431 10.1757C14.431 9.73161 14.582 9.38861 14.8843 9.14699C15.1865 8.90536 15.5779 8.78442 16.0585 8.78442C16.539 8.78442 16.8921 8.91024 17.1172 9.16161C17.3423 9.41299 17.4551 9.75092 17.4551 10.1757C17.4551 11.5675 17.431 12.214 17.3838 15.3637C17.3361 18.5135 17.3125 19.506 17.3125 20.8972C17.3125 21.1876 17.1766 21.4148 16.9051 21.5788C16.6331 21.7429 16.351 21.825 16.0585 21.825C15.2018 21.825 14.7734 21.516 14.7734 20.8972C14.7734 19.506 14.7163 18.5135 14.6022 15.3637C14.488 12.2139 14.431 11.5674 14.431 10.1757Z" fill="white" stroke="white"/>
</svg>
