<svg width="44" height="38" viewBox="0 0 44 38" fill="none" xmlns="http://www.w3.org/2000/svg">
<path fill-rule="evenodd" clip-rule="evenodd" d="M23.6496 5.95355C21.7221 6.01453 21.0411 6.6147 20.7584 6.96774C20.7359 6.99341 20.7199 7.01909 20.707 7.03513C20.5625 7.24375 20.2926 7.73801 20.0099 9.17263C19.8116 10.1812 19.6945 11.204 19.6598 12.2312L19.1876 15.2514C18.847 17.4466 18.0086 20.7812 15.474 21.3493C12.0111 22.1228 8.08557 16.9492 6.89377 15.3316C6.42798 14.6897 5.80477 13.7782 3.23166 8.47297C1.86961 5.64223 0.767759 3.26723 0 1.57905L18.0793 13.3417L18.2881 12.0098C18.4455 10.7549 18.6093 9.67652 18.7378 8.80034C19.0269 6.96132 19.1362 6.59544 19.4156 6.16858C20.0449 5.29736 20.9657 4.68022 22.0112 4.42905C22.8304 4.23007 23.0039 4.44831 24.0768 4.28463C24.9049 4.1549 25.7085 3.90061 26.4604 3.53041C27.9477 2.82111 30.8067 1.62399 34.7162 0C32.112 1.64752 29.4961 3.36779 26.8684 5.16081L25.9046 5.82838C25.8822 5.87973 25.5384 6.02095 25.471 6.17179C25.4182 6.35856 25.3764 6.54824 25.3457 6.73986C25.2301 7.53581 25.1401 8.40236 25.0919 9.3299C25.0274 10.6365 25.0564 11.9461 25.1786 13.2486L44.0096 1.17466C41.4044 5.96318 39.1493 9.8402 37.45 12.7095C36.4027 14.4682 35.7635 15.5049 34.652 16.6731C31.6227 19.8409 27.8514 21.0861 25.2686 21.635C25.2686 21.866 25.2686 22.1838 25.2686 22.5625C25.2108 25.772 23.9836 28.1084 21.8988 30.4257C21.115 31.2986 20.2637 32.1074 19.4799 32.9932C18.9531 33.5742 18.4455 34.5081 17.9058 35.3458C17.5268 35.9363 17.2216 36.4306 17.0128 36.7708L16.2611 38.0128V27.8742C16.2128 26.4575 16.5503 25.0543 17.2376 23.8142C18.6543 21.4456 21.2885 20.563 23.8808 20.3223C23.8808 19.6804 23.8808 19.0674 23.8808 18.4416C23.8808 18.1655 23.8808 17.7644 23.8808 16.8368C23.8616 15.5787 23.8423 14.6255 23.8423 14.5164C23.7973 13.1588 23.7363 10.052 23.6496 5.95355ZM23.868 21.7409C20.238 22.11 17.6328 23.7757 17.636 27.8613V32.9772C17.8833 32.6562 18.15 32.3353 18.423 32.0144C19.21 31.1446 20.0581 30.3358 20.8451 29.4468C22.6987 27.3863 23.7973 25.3515 23.8519 22.5047C23.8519 22.2383 23.8519 21.972 23.8519 21.7088L23.868 21.7409ZM25.2814 20.2196C27.6661 20.0299 29.9384 19.1274 31.8026 17.6296C33.4088 16.3169 34.6937 14.6095 35.7699 12.8154C37.0066 10.7742 38.0442 8.5853 39.0851 6.43497C39.1814 6.23598 39.2906 6.02736 39.4063 5.81233L25.23 14.8791C25.2493 16.0633 25.2718 17.2476 25.2814 18.4319C25.2847 19.0257 25.2847 19.6226 25.2814 20.2196ZM3.53362 5.55878C3.88377 6.30659 4.1761 7.10253 4.52946 7.93057C5.44416 10.2478 6.61883 12.4539 8.03096 14.5068C9.11565 16.0829 10.4128 17.5021 11.8858 18.724C12.7275 19.3659 14.0574 20.226 15.1817 19.9725C16.9614 19.5777 17.591 16.4998 17.8191 15.0331L17.8448 14.863L3.53362 5.55878Z" fill="#2CC2D3"/>
</svg>
