<svg width="89" height="20" viewBox="0 0 89 20" fill="none" xmlns="http://www.w3.org/2000/svg">
<path d="M9.656 19L5.672 12.16H3.032V19H0.848V2.272H6.248C7.512 2.272 8.576 2.488 9.44 2.92C10.32 3.352 10.976 3.936 11.408 4.672C11.84 5.408 12.056 6.248 12.056 7.192C12.056 8.344 11.72 9.36 11.048 10.24C10.392 11.12 9.4 11.704 8.072 11.992L12.272 19H9.656ZM3.032 10.408H6.248C7.432 10.408 8.32 10.12 8.912 9.544C9.504 8.952 9.8 8.168 9.8 7.192C9.8 6.2 9.504 5.432 8.912 4.888C8.336 4.344 7.448 4.072 6.248 4.072H3.032V10.408ZM29.9496 11.92C29.9496 12.336 29.9256 12.776 29.8776 13.24H19.3656C19.4456 14.536 19.8856 15.552 20.6856 16.288C21.5016 17.008 22.4856 17.368 23.6376 17.368C24.5816 17.368 25.3656 17.152 25.9896 16.72C26.6296 16.272 27.0776 15.68 27.3336 14.944H29.6856C29.3336 16.208 28.6296 17.24 27.5736 18.04C26.5176 18.824 25.2056 19.216 23.6376 19.216C22.3896 19.216 21.2696 18.936 20.2776 18.376C19.3016 17.816 18.5336 17.024 17.9736 16C17.4136 14.96 17.1336 13.76 17.1336 12.4C17.1336 11.04 17.4056 9.848 17.9496 8.824C18.4936 7.8 19.2536 7.016 20.2296 6.472C21.2216 5.912 22.3576 5.632 23.6376 5.632C24.8856 5.632 25.9896 5.904 26.9496 6.448C27.9096 6.992 28.6456 7.744 29.1576 8.704C29.6856 9.648 29.9496 10.72 29.9496 11.92ZM27.6936 11.464C27.6936 10.632 27.5096 9.92 27.1416 9.328C26.7736 8.72 26.2696 8.264 25.6296 7.96C25.0056 7.64 24.3096 7.48 23.5416 7.48C22.4376 7.48 21.4936 7.832 20.7096 8.536C19.9416 9.24 19.5016 10.216 19.3896 11.464H27.6936ZM34.5164 12.376C34.5164 11.032 34.7884 9.856 35.3324 8.848C35.8764 7.824 36.6204 7.032 37.5644 6.472C38.5244 5.912 39.5884 5.632 40.7564 5.632C41.9084 5.632 42.9084 5.88 43.7564 6.376C44.6044 6.872 45.2364 7.496 45.6524 8.248V5.848H47.8604V19H45.6524V16.552C45.2204 17.32 44.5724 17.96 43.7084 18.472C42.8604 18.968 41.8684 19.216 40.7324 19.216C39.5644 19.216 38.5084 18.928 37.5644 18.352C36.6204 17.776 35.8764 16.968 35.3324 15.928C34.7884 14.888 34.5164 13.704 34.5164 12.376ZM45.6524 12.4C45.6524 11.408 45.4524 10.544 45.0524 9.808C44.6524 9.072 44.1084 8.512 43.4204 8.128C42.7484 7.728 42.0044 7.528 41.1884 7.528C40.3724 7.528 39.6284 7.72 38.9564 8.104C38.2844 8.488 37.7484 9.048 37.3484 9.784C36.9484 10.52 36.7484 11.384 36.7484 12.376C36.7484 13.384 36.9484 14.264 37.3484 15.016C37.7484 15.752 38.2844 16.32 38.9564 16.72C39.6284 17.104 40.3724 17.296 41.1884 17.296C42.0044 17.296 42.7484 17.104 43.4204 16.72C44.1084 16.32 44.6524 15.752 45.0524 15.016C45.4524 14.264 45.6524 13.392 45.6524 12.4ZM56.2351 1.24V19H54.0511V1.24H56.2351ZM63.5854 3.712C63.1694 3.712 62.8174 3.568 62.5294 3.28C62.2414 2.992 62.0974 2.64 62.0974 2.224C62.0974 1.808 62.2414 1.456 62.5294 1.168C62.8174 0.879999 63.1694 0.735999 63.5854 0.735999C63.9854 0.735999 64.3214 0.879999 64.5934 1.168C64.8814 1.456 65.0254 1.808 65.0254 2.224C65.0254 2.64 64.8814 2.992 64.5934 3.28C64.3214 3.568 63.9854 3.712 63.5854 3.712ZM64.6414 5.848V19H62.4574V5.848H64.6414ZM80.3196 2.272V4.048H73.0476V9.688H78.9516V11.464H73.0476V19H70.8636V2.272H80.3196ZM86.5854 3.712C86.1694 3.712 85.8174 3.568 85.5294 3.28C85.2414 2.992 85.0974 2.64 85.0974 2.224C85.0974 1.808 85.2414 1.456 85.5294 1.168C85.8174 0.879999 86.1694 0.735999 86.5854 0.735999C86.9854 0.735999 87.3214 0.879999 87.5934 1.168C87.8814 1.456 88.0254 1.808 88.0254 2.224C88.0254 2.64 87.8814 2.992 87.5934 3.28C87.3214 3.568 86.9854 3.712 86.5854 3.712ZM87.6414 5.848V19H85.4574V5.848H87.6414Z" fill="#2CC2D3"/>
</svg>
